<?xml version="1.0" encoding="utf-8"?>
<!-- Generator: Adobe Illustrator 26.2.1, SVG Export Plug-In . SVG Version: 6.00 Build 0)  -->
<svg version="1.1" id="Layer_1" xmlns="http://www.w3.org/2000/svg" xmlns:xlink="http://www.w3.org/1999/xlink" x="0px" y="0px"
	 viewBox="0 0 209.1 90.1" style="enable-background:new 0 0 209.1 90.1;" xml:space="preserve">
<style type="text/css">
	.st0{fill:#CCCCCC;}
	.st1{fill:#F47C20;}
	.st2{fill:#4062AD;}
	.st3{fill:#0E173F;}
	.st4{fill:#05308A;}
	.st5{font-family:'Avenir-Black';}
	.st6{font-size:54px;}
</style>
<g>
	<g>
		<path class="st0" d="M17.7,54.4c4.8,4,14.1,8.3,19.8,10.9c5.7,2.7,11.9,3.2,17.8,5.3c2.8,1,5.1,2.8,7.7,4.2c3,1.5,6.1,2.4,9.3,3.4
			c5,1.6,6.7,8.4,1.5,11.1c-2.3,1.3-4.3,0.6-6.6-0.4c-3-1.3-6.2-2.4-9.4-2.9c-3-0.5-5.7-0.7-8.6-1.8c-2.9-1.1-5.6-2.7-8.4-4
			c-5.6-2.6-15.1-5.4-21.6-5.9C13.9,73.9,7.5,75,3.4,70.9C-5.9,61.4,7,45.5,17.7,54.4z"/>
	</g>
	<rect x="46.6" y="76" transform="matrix(0.334 -0.9426 0.9426 0.334 -37.5258 102.9409)" class="st1" width="14.9" height="4"/>
	<path class="st0" d="M81.9,60.9c-0.4,0-0.8-0.2-0.9-0.6l-4.1-10.5c-0.1-0.2-0.1-0.5,0-0.7l1.9-4.7c0.2-0.5,0.8-0.8,1.3-0.6
		s0.8,0.8,0.6,1.3l-1.8,4.4l4,10.1c0.2,0.5-0.1,1.1-0.6,1.3C82.2,60.9,82.1,60.9,81.9,60.9z"/>
	<rect x="77.6" y="53.8" transform="matrix(0.1533 -0.9882 0.9882 0.1533 8.8738 126.6732)" class="st2" width="1.6" height="8.7"/>
	<path class="st0" d="M74.1,58.5C74.1,58.5,74,58.5,74.1,58.5c-0.6,0-1-0.5-1-1.1l0.6-7.8c0-0.5,0.4-0.9,0.9-0.9l3.1-0.2
		c0.6,0,1,0.4,1.1,0.9c0,0.6-0.4,1-0.9,1.1l-2.2,0.2l-0.6,7C75,58.1,74.6,58.5,74.1,58.5z"/>
	<path class="st0" d="M83.5,61.5c-0.3,0-0.7-0.2-0.9-0.5c-0.3-0.5-0.1-1.1,0.3-1.4l9.2-5.7l1.2-4.5c0.1-0.5,0.7-0.8,1.2-0.7
		s0.8,0.7,0.7,1.2l-1.3,4.9c-0.1,0.2-0.2,0.5-0.4,0.6l-9.6,5.9C83.9,61.5,83.7,61.5,83.5,61.5z"/>
	<rect x="86.5" y="57" transform="matrix(0.4691 -0.8831 0.8831 0.4691 -7.7508 109.6534)" class="st2" width="1.6" height="8.6"/>
	<path class="st0" d="M91.2,64.3c-0.2,0-0.4-0.1-0.5-0.2c-0.5-0.3-0.6-0.9-0.3-1.4l3.7-5.9l-1.7-1.5c-0.4-0.4-0.5-1-0.1-1.4
		s1-0.5,1.4-0.1l2.3,2.1c0.4,0.3,0.4,0.9,0.2,1.3L92,63.8C91.9,64.1,91.6,64.3,91.2,64.3z"/>
	<path class="st0" d="M67,81.2c0.7-0.9,1.2-1.9,1.8-2.8c0.6-1,1.1-2,1.5-3c0.5-1,0.9-2,1.4-3c0.4-1,0.8-2.1,1.2-3.1
		c0.6-2.2,1-4.4,1.7-6.5c0.7-2.1,1.6-4.2,2.9-6c2-2.9,6-3.6,8.8-1.6c2.3,1.6,3.2,4.4,2.5,6.9c-0.6,2.2-1.6,4.2-2.7,6.1
		s-2.6,3.7-3.9,5.5c-0.6,0.9-1.2,1.9-1.6,2.9c-0.5,1-1,2-1.4,3c-0.5,1-0.9,2-1.3,3.1c-0.4,1-0.7,2.1-1,3.2c-0.7,3-3.7,4.8-6.7,4
		c-3-0.7-4.8-3.7-4-6.7C66.3,82.4,66.6,81.7,67,81.2z"/>
	<rect x="74.5" y="68.7" transform="matrix(0.4226 -0.9063 0.9063 0.4226 -22.4424 111.8)" class="st1" width="4" height="9.6"/>
	<rect x="33.5" y="71.1" transform="matrix(0.3364 -0.9417 0.9417 0.3364 -42.4341 86.0497)" class="st1" width="12.6" height="4"/>
	<path class="st0" d="M29.6,13.6c-1.1,9.4-2.5,19.3-5,29.4c-1.3,5.3-3.1,11.3-3.2,16.8c0,4,0,3.2-1.2,7C18,73.6,9.3,76,3.8,71.4
		c-3.5-3-4.3-7.3-3.5-12.4c1.3-8.8,7.6-14.7,10.5-22.5c2.9-7.7,4-16.7,3.1-24.9c-0.4-3.4-0.7-6.3,1.8-9c2.4-2.6,6.4-3.4,9.7-1.8
		C30.7,3.3,30.2,8.7,29.6,13.6z"/>
	
		<rect x="19.5" y="11" transform="matrix(7.049260e-02 -0.9975 0.9975 7.049260e-02 1.7083 38.4477)" class="st1" width="4" height="14.7"/>
	<circle class="st3" cx="10.8" cy="62.7" r="4.9"/>
</g>
<path class="st1" d="M56,3.1v35.5h14.2v10h-26V3.1H56z"/>
<path class="st1" d="M134,14.7c-1.3-1-2.6-1.8-3.9-2.3c-1.3-0.5-2.5-0.8-3.7-0.8c-1.5,0-2.8,0.4-3.7,1.1c-1,0.7-1.4,1.7-1.4,2.8
	c0,0.8,0.2,1.5,0.7,2s1.1,1,1.9,1.4s1.7,0.7,2.7,1s2,0.6,2.9,0.9c3.9,1.3,6.7,3,8.5,5.2s2.7,5,2.7,8.4c0,2.3-0.4,4.4-1.2,6.3
	c-0.8,1.9-1.9,3.5-3.4,4.9c-1.5,1.3-3.4,2.4-5.6,3.1c-2.2,0.7-4.7,1.1-7.5,1.1c-5.8,0-11.1-1.7-16-5.1l5.1-9.5
	c1.8,1.6,3.5,2.7,5.3,3.5c1.7,0.8,3.4,1.1,5.1,1.1c1.9,0,3.4-0.4,4.3-1.3c0.9-0.9,1.4-1.9,1.4-3c0-0.7-0.1-1.3-0.4-1.8
	c-0.2-0.5-0.6-1-1.2-1.4c-0.6-0.4-1.3-0.8-2.2-1.2c-0.9-0.4-2-0.8-3.3-1.2c-1.5-0.5-3-1-4.5-1.6s-2.8-1.4-3.9-2.3
	c-1.1-1-2.1-2.2-2.8-3.7c-0.7-1.5-1.1-3.3-1.1-5.6s0.4-4.3,1.1-6.1s1.8-3.4,3.1-4.7c1.3-1.3,3-2.3,4.9-3c2-0.7,4.1-1.1,6.5-1.1
	c2.3,0,4.6,0.3,7.1,0.9s4.8,1.5,7.1,2.7L134,14.7z"/>
<polygon class="st1" points="87.4,3.1 81,48.6 93,48.6 99.4,3.1 "/>
<path class="st1" d="M56,3.1v35.5h14.2v10h-26V3.1H56z"/>
<path class="st1" d="M134,14.7c-1.3-1-2.6-1.8-3.9-2.3c-1.3-0.5-2.5-0.8-3.7-0.8c-1.5,0-2.8,0.4-3.7,1.1c-1,0.7-1.4,1.7-1.4,2.8
	c0,0.8,0.2,1.5,0.7,2s1.1,1,1.9,1.4s1.7,0.7,2.7,1s2,0.6,2.9,0.9c3.9,1.3,6.7,3,8.5,5.2s2.7,5,2.7,8.4c0,2.3-0.4,4.4-1.2,6.3
	c-0.8,1.9-1.9,3.5-3.4,4.9c-1.5,1.3-3.4,2.4-5.6,3.1c-2.2,0.7-4.7,1.1-7.5,1.1c-5.8,0-11.1-1.7-16-5.1l5.1-9.5
	c1.8,1.6,3.5,2.7,5.3,3.5c1.7,0.8,3.4,1.1,5.1,1.1c1.9,0,3.4-0.4,4.3-1.3c0.9-0.9,1.4-1.9,1.4-3c0-0.7-0.1-1.3-0.4-1.8
	c-0.2-0.5-0.6-1-1.2-1.4c-0.6-0.4-1.3-0.8-2.2-1.2c-0.9-0.4-2-0.8-3.3-1.2c-1.5-0.5-3-1-4.5-1.6s-2.8-1.4-3.9-2.3
	c-1.1-1-2.1-2.2-2.8-3.7c-0.7-1.5-1.1-3.3-1.1-5.6s0.4-4.3,1.1-6.1s1.8-3.4,3.1-4.7c1.3-1.3,3-2.3,4.9-3c2-0.7,4.1-1.1,6.5-1.1
	c2.3,0,4.6,0.3,7.1,0.9s4.8,1.5,7.1,2.7L134,14.7z"/>
<polygon class="st1" points="87.4,3.1 81,48.6 93,48.6 99.4,3.1 "/>
<text transform="matrix(1 0 0 1 148.0602 49.3766)" class="st4 st5 st6">d</text>
<text transform="matrix(1 0 0 1 188.3848 49.3759)" class="st4 st5 st6">f</text>
</svg>
